<svg width="25" height="24" viewBox="0 0 25 24" fill="none" xmlns="http://www.w3.org/2000/svg">
<path d="M19.75 7H16.75V6C16.75 4.93913 16.3286 3.92172 15.5784 3.17157C14.8283 2.42143 13.8109 2 12.75 2C11.6891 2 10.6717 2.42143 9.92157 3.17157C9.17143 3.92172 8.75 4.93913 8.75 6V7H5.75C5.48478 7 5.23043 7.10536 5.04289 7.29289C4.85536 7.48043 4.75 7.73478 4.75 8V19C4.75 19.7956 5.06607 20.5587 5.62868 21.1213C6.19129 21.6839 6.95435 22 7.75 22H17.75C18.5456 22 19.3087 21.6839 19.8713 21.1213C20.4339 20.5587 20.75 19.7956 20.75 19V8C20.75 7.73478 20.6446 7.48043 20.4571 7.29289C20.2696 7.10536 20.0152 7 19.75 7ZM10.75 6C10.75 5.46957 10.9607 4.96086 11.3358 4.58579C11.7109 4.21071 12.2196 4 12.75 4C13.2804 4 13.7891 4.21071 14.1642 4.58579C14.5393 4.96086 14.75 5.46957 14.75 6V7H10.75V6ZM18.75 19C18.75 19.2652 18.6446 19.5196 18.4571 19.7071C18.2696 19.8946 18.0152 20 17.75 20H7.75C7.48478 20 7.23043 19.8946 7.04289 19.7071C6.85536 19.5196 6.75 19.2652 6.75 19V9H8.75V10C8.75 10.2652 8.85536 10.5196 9.04289 10.7071C9.23043 10.8946 9.48478 11 9.75 11C10.0152 11 10.2696 10.8946 10.4571 10.7071C10.6446 10.5196 10.75 10.2652 10.75 10V9H14.75V10C14.75 10.2652 14.8554 10.5196 15.0429 10.7071C15.2304 10.8946 15.4848 11 15.75 11C16.0152 11 16.2696 10.8946 16.4571 10.7071C16.6446 10.5196 16.75 10.2652 16.75 10V9H18.75V19Z" fill="#51AA1B"/>
</svg>
