<svg width="40" height="40" viewBox="0 0 40 40" fill="none" xmlns="http://www.w3.org/2000/svg">
<rect x="0.5" y="0.5" width="39" height="39" rx="3.5" stroke="#51AA1B"/>
<path d="M27 15H24V14C24 12.9391 23.5786 11.9217 22.8284 11.1716C22.0783 10.4214 21.0609 10 20 10C18.9391 10 17.9217 10.4214 17.1716 11.1716C16.4214 11.9217 16 12.9391 16 14V15H13C12.7348 15 12.4804 15.1054 12.2929 15.2929C12.1054 15.4804 12 15.7348 12 16V27C12 27.7956 12.3161 28.5587 12.8787 29.1213C13.4413 29.6839 14.2044 30 15 30H25C25.7956 30 26.5587 29.6839 27.1213 29.1213C27.6839 28.5587 28 27.7956 28 27V16C28 15.7348 27.8946 15.4804 27.7071 15.2929C27.5196 15.1054 27.2652 15 27 15ZM18 14C18 13.4696 18.2107 12.9609 18.5858 12.5858C18.9609 12.2107 19.4696 12 20 12C20.5304 12 21.0391 12.2107 21.4142 12.5858C21.7893 12.9609 22 13.4696 22 14V15H18V14ZM26 27C26 27.2652 25.8946 27.5196 25.7071 27.7071C25.5196 27.8946 25.2652 28 25 28H15C14.7348 28 14.4804 27.8946 14.2929 27.7071C14.1054 27.5196 14 27.2652 14 27V17H16V18C16 18.2652 16.1054 18.5196 16.2929 18.7071C16.4804 18.8946 16.7348 19 17 19C17.2652 19 17.5196 18.8946 17.7071 18.7071C17.8946 18.5196 18 18.2652 18 18V17H22V18C22 18.2652 22.1054 18.5196 22.2929 18.7071C22.4804 18.8946 22.7348 19 23 19C23.2652 19 23.5196 18.8946 23.7071 18.7071C23.8946 18.5196 24 18.2652 24 18V17H26V27Z" fill="#51AA1B"/>
</svg>
